<svg width="17" height="17" viewBox="0 0 17 17" fill="none" xmlns="http://www.w3.org/2000/svg"><path fill-rule="evenodd" clip-rule="evenodd" d="M4.343 0h7.602c2.77 0 4.351 1.564 4.351 4.343v7.61c0 2.763-1.572 4.343-4.343 4.343h-7.61C1.564 16.296 0 14.716 0 11.953v-7.61C0 1.564 1.564 0 4.343 0m4.473 8.824h2.314a.687.687 0 0 0 .677-.684.675.675 0 0 0-.677-.676H8.816V5.166a.675.675 0 0 0-.676-.676.675.675 0 0 0-.676.676v2.298H5.158c-.18 0-.35.073-.481.195a.7.7 0 0 0-.196.481c0 .375.302.676.677.684h2.306v2.306c0 .375.301.677.676.677a.675.675 0 0 0 .676-.677z" fill="#7857FF"/></svg>