<svg width="20" height="20" viewBox="0 0 20 20" fill="none" xmlns="http://www.w3.org/2000/svg"><path fill-rule="evenodd" clip-rule="evenodd" d="M14.109 5.833a.4.4 0 0 0 .036-.188h.022a4.16 4.16 0 0 0-4.163-3.978 4.16 4.16 0 0 0-4.162 3.978.5.5 0 0 0 0 .188h-.066c-1.067 0-2.209.705-2.54 2.6l-.649 5.163c-.53 3.79 1.422 4.737 3.97 4.737h6.908c2.541 0 4.434-1.372 3.963-4.737l-.641-5.163c-.39-1.842-1.495-2.6-2.548-2.6zm-1.198 0a.5.5 0 0 1-.036-.188c0-1.598-1.3-2.893-2.904-2.893a2.9 2.9 0 0 0-2.903 2.893.5.5 0 0 1 0 .188zm-5.33 4.29a.75.75 0 0 1-.737-.757c0-.419.33-.758.737-.758s.736.34.736.758c0 .419-.33.758-.736.758m4.087-.757c0 .419.33.758.737.758s.736-.34.736-.758a.747.747 0 0 0-.736-.758.747.747 0 0 0-.737.758" fill="#7986AC"/></svg>