<svg width="20" height="20" viewBox="0 0 20 20" fill="none" xmlns="http://www.w3.org/2000/svg"><path fill-rule="evenodd" clip-rule="evenodd" d="M14.534 5.197a.19.19 0 0 0 .166.1c2 0 3.634 1.631 3.634 3.63v4.944A3.64 3.64 0 0 1 14.7 17.5H5.3a3.634 3.634 0 0 1-3.633-3.63V8.927A3.634 3.634 0 0 1 5.3 5.296c.067 0 .134-.032.159-.099l.05-.1.088-.186c.213-.449.449-.945.595-1.237.383-.75 1.033-1.166 1.842-1.174h3.925c.808.008 1.466.425 1.85 1.174.13.262.33.684.524 1.091l.117.249zm-.609 3.196c0 .417.334.75.75.75a.754.754 0 0 0 .759-.75.754.754 0 1 0-1.508 0M8.56 9.683c.391-.39.9-.599 1.441-.599.542 0 1.05.208 1.434.591s.591.891.591 1.432A2.03 2.03 0 0 1 10 13.13a2 2 0 0 1-1.433-.591 2 2 0 0 1-.592-1.432V11.1c-.008-.525.2-1.032.584-1.415m3.75 3.738a3.275 3.275 0 0 1-4.625 0 3.27 3.27 0 0 1-.959-2.314 3.22 3.22 0 0 1 .95-2.306A3.27 3.27 0 0 1 10 7.836c.875 0 1.7.341 2.317.957a3.28 3.28 0 0 1 .958 2.314 3.3 3.3 0 0 1-.966 2.314" fill="#7986AC"/></svg>