<svg width="50" height="50" viewBox="0 0 50 50" fill="none" xmlns="http://www.w3.org/2000/svg"><path fill-rule="evenodd" clip-rule="evenodd" d="M12.91 31.598c0-3.644 8.29-6.6 18.522-6.6 10.228 0 18.52 2.956 18.52 6.6v6.068c0 3.644-8.292 6.6-18.52 6.6-10.232 0-18.523-2.956-18.523-6.6z" fill="#FE9923"/><path fill-rule="evenodd" clip-rule="evenodd" d="M31.432 24.997c10.228 0 18.52 2.957 18.52 6.601 0 3.647-8.292 6.602-18.52 6.602-10.232 0-18.523-2.955-18.523-6.602 0-3.644 8.291-6.6 18.523-6.6" fill="#FECD3D"/><path fill-rule="evenodd" clip-rule="evenodd" d="M31.432 28.082c8.137 0 14.733 1.576 14.733 3.516 0 1.943-6.596 3.517-14.733 3.517s-14.737-1.574-14.737-3.517c0-1.94 6.599-3.516 14.737-3.516" fill="#FEA832"/><path d="m22.055 40.577 1.582.003v3.073a35 35 0 0 1-1.582-.295zm22.888-1.628v3.23q.857-.329 1.585-.69v-2.542zm-17.167 5.187q.783.059 1.585.088v-2.937l-1.585.003zM16.33 41.489q.73.361 1.585.69v-3.233l-1.585.003zm17.17 2.735q.804-.031 1.582-.088V41.29l-1.582-.003zm5.724-.57q.814-.134 1.582-.296V40.58l-1.582-.003z" fill="#C85929"/><path d="M5.487 38.932v1.966H7.45V42.3H5.487v1.966H4.084V42.3H2.118v-1.403h1.966v-1.966zm35.909-21.527v1.965h1.965v1.4h-1.965v1.966h-1.404v-1.965H38.03v-1.4h1.962v-1.966zM6.43 5.733V7.7h1.963v1.4H6.43v1.966H5.027V9.099H3.06V7.7h1.966V5.733z" fill="#FEA832"/><path fill-rule="evenodd" clip-rule="evenodd" d="M.388 28.167c-1.823-3.158 3.88-9.865 12.74-14.978 8.86-5.115 17.517-6.7 19.34-3.544l3.034 5.252c1.823 3.158-3.88 9.864-12.74 14.977-8.859 5.116-17.516 6.704-19.34 3.545z" fill="#FE9923"/><path fill-rule="evenodd" clip-rule="evenodd" d="M13.128 13.19c8.86-5.116 17.517-6.701 19.34-3.545 1.824 3.158-3.88 9.864-12.74 14.977-8.856 5.116-17.516 6.7-19.34 3.545-1.823-3.158 3.88-9.865 12.74-14.978" fill="#FECD3D"/><path fill-rule="evenodd" clip-rule="evenodd" d="M14.67 15.86c7.047-4.068 13.549-6.002 14.52-4.32.972 1.68-3.956 6.342-11.003 10.412-7.048 4.068-13.547 6.002-14.518 4.32S7.623 19.93 14.67 15.86" fill="#FEA832"/><path d="m19.482 28.332 1.468 2.542q-.71.375-1.417.716l-1.423-2.466zM7.029 32.82l1.27 2.198q.812-.047 1.716-.193L8.4 32.027zm5.77-1.452 1.391 2.409a36 36 0 0 0 1.517-.534l-1.537-2.665zm10.267-5.107 1.469 2.542q.679-.426 1.326-.866l-1.423-2.463zm10.112-8.541-1.372.795 1.617 2.795c.383-.471.727-.937 1.025-1.389zm-5.51 5.064 1.537 2.665q.638-.52 1.221-1.046l-1.389-2.405z" fill="#C85929"/></svg>