<svg width="64" height="64" viewBox="0 0 64 64" fill="none" xmlns="http://www.w3.org/2000/svg"><rect x="4" y="4" width="56" height="56" rx="28" fill="#FEF0C7"/><rect x="4" y="4" width="56" height="56" rx="28" stroke="#E4EAFF" stroke-width="8"/><path fill-rule="evenodd" clip-rule="evenodd" d="M24.745 35.959c0-2.187 4.975-3.96 11.114-3.96 6.137 0 11.111 1.774 11.111 3.96v3.64c0 2.187-4.974 3.961-11.111 3.961-6.14 0-11.114-1.774-11.114-3.96z" fill="#FE9923"/><path fill-rule="evenodd" clip-rule="evenodd" d="M35.859 31.998c6.137 0 11.111 1.774 11.111 3.961 0 2.188-4.974 3.96-11.111 3.96-6.14 0-11.114-1.772-11.114-3.96s4.975-3.96 11.114-3.96" fill="#FECD3D"/><path fill-rule="evenodd" clip-rule="evenodd" d="M35.86 33.85c4.882 0 8.84.945 8.84 2.109 0 1.166-3.958 2.11-8.84 2.11-4.883 0-8.842-.944-8.842-2.11 0-1.164 3.959-2.11 8.841-2.11" fill="#FEA832"/><path d="m30.233 41.346.95.002v1.844a21 21 0 0 1-.95-.177zm13.733-.976v1.937q.514-.196.95-.414v-1.525zm-10.3 3.112q.47.034.95.052v-1.762l-.95.002zm-6.867-1.589q.437.218.95.414v-1.94l-.95.003zm10.3 1.641q.483-.018.95-.052v-1.708l-.95-.002zm3.435-.342q.488-.08.949-.177v-1.667l-.95-.002z" fill="#C85929"/><path d="M20.292 40.36v1.179h1.177v.842h-1.177v1.179h-.842v-1.18h-1.18v-.841h1.18v-1.18zm21.546-12.917v1.18h1.18v.84h-1.18v1.179h-.842v-1.18h-1.178v-.84h1.178v-1.18zm-20.98-7.003v1.18h1.178v.84h-1.178v1.179h-.842v-1.18h-1.18v-.84h1.18v-1.18z" fill="#FEA832"/><path fill-rule="evenodd" clip-rule="evenodd" d="M17.233 33.9c-1.094-1.895 2.328-5.919 7.644-8.986 5.315-3.07 10.51-4.02 11.604-2.127l1.82 3.15c1.094 1.896-2.328 5.92-7.644 8.987-5.315 3.07-10.51 4.023-11.604 2.127z" fill="#FE9923"/><path fill-rule="evenodd" clip-rule="evenodd" d="M24.877 24.914c5.315-3.07 10.51-4.02 11.604-2.127 1.094 1.895-2.328 5.919-7.644 8.986-5.314 3.07-10.51 4.02-11.604 2.127-1.094-1.895 2.328-5.919 7.644-8.986" fill="#FECD3D"/><path fill-rule="evenodd" clip-rule="evenodd" d="M25.802 26.516c4.228-2.44 8.13-3.601 8.712-2.593.583 1.01-2.374 3.806-6.602 6.248-4.229 2.44-8.128 3.601-8.71 2.593-.584-1.01 2.371-3.806 6.6-6.248" fill="#FEA832"/><path d="m28.69 33.999.88 1.525q-.426.225-.85.43l-.854-1.48zm-7.472 2.693.762 1.319q.486-.029 1.029-.116l-.968-1.679zm3.461-.871.835 1.445q.448-.146.91-.32l-.922-1.599zm6.161-3.064.881 1.525q.407-.256.796-.52l-.854-1.477zm6.067-5.125-.823.477.97 1.677q.346-.426.615-.833zm-3.306 3.039.922 1.598q.384-.312.733-.627l-.834-1.444z" fill="#C85929"/></svg>