<svg width="20" height="20" viewBox="0 0 20 20" fill="none" xmlns="http://www.w3.org/2000/svg"><path d="M9.358 6.075v-3.34c0-.356.284-.652.642-.652.32 0 .593.25.636.564l.006.088v3.34h3.983c1.983 0 3.613 1.625 3.704 3.65l.004.18v4.2c0 2.04-1.572 3.714-3.526 3.808l-.174.004H5.367c-1.984 0-3.605-1.616-3.696-3.65l-.004-.18v-4.19c0-2.04 1.565-3.723 3.518-3.817l.173-.004zv5.335l-1.333-1.377a.63.63 0 0 0-.908 0 .68.68 0 0 0-.184.473c0 .131.038.268.117.383l.067.082 2.425 2.513a.6.6 0 0 0 .458.198.6.6 0 0 0 .388-.139l.062-.06 2.425-2.512a.68.68 0 0 0 0-.938.63.63 0 0 0-.836-.064l-.072.064-1.325 1.377V6.076z" fill="#7986AC"/></svg>