<svg width="46" height="46" viewBox="0 0 46 46" fill="none" xmlns="http://www.w3.org/2000/svg"><rect x="3" y="3" width="40" height="40" rx="20" fill="#F4F7FE"/><rect x="3" y="3" width="40" height="40" rx="20" stroke="#E4EAFF" stroke-width="6"/><path d="m23.834 14.667-7.423 8.906c-.29.35-.436.523-.438.67a.42.42 0 0 0 .155.331c.114.093.341.093.796.093H23l-.833 6.666 7.422-8.906c.29-.349.436-.523.438-.67a.42.42 0 0 0-.155-.331c-.114-.093-.341-.093-.795-.093H23z" stroke="url(#a)" stroke-width="1.667" stroke-linecap="round" stroke-linejoin="round"/><defs><linearGradient id="a" x1="15.973" y1="14.667" x2="32.401" y2="28.519" gradientUnits="userSpaceOnUse"><stop stop-color="#868CFF"/><stop offset="1" stop-color="#4318FF"/></linearGradient></defs></svg>