<svg width="20" height="20" viewBox="0 0 20 20" fill="none" xmlns="http://www.w3.org/2000/svg"><path fill-rule="evenodd" clip-rule="evenodd" d="M6.389 18.333h7.222c2.825 0 4.723-1.981 4.723-4.93V6.597c0-2.948-1.898-4.93-4.722-4.93H6.389c-2.825 0-4.722 1.982-4.722 4.93v6.806c0 2.949 1.897 4.93 4.722 4.93m.694-9.166A2.085 2.085 0 0 1 5 7.083C5 5.935 5.934 5 7.083 5c1.148 0 2.082.935 2.082 2.083a2.085 2.085 0 0 1-2.082 2.084m9.435 3.278c.279.716.134 1.576-.165 2.284a3.08 3.08 0 0 1-1.883 1.76 3.8 3.8 0 0 1-1.173.178H6.274c-.699 0-1.317-.168-1.824-.48-.318-.196-.374-.649-.138-.942q.588-.735 1.174-1.478c.748-.95 1.252-1.225 1.811-.983.227.1.455.25.69.407.625.425 1.494 1.01 2.639.375.783-.438 1.238-1.19 1.633-1.846l.007-.011.083-.138c.133-.22.264-.437.413-.637.186-.25.875-1.033 1.769-.475.569.35 1.047.825 1.56 1.333.194.195.334.416.427.653" fill="#7986AC"/></svg>