<svg width="50" height="50" viewBox="0 0 50 50" fill="none" xmlns="http://www.w3.org/2000/svg"><path d="m39.296 42.922-32.17-3.565a2.82 2.82 0 0 1-2.49-3.11l2.957-26.68a2.82 2.82 0 0 1 3.11-2.49l32.17 3.566a2.82 2.82 0 0 1 2.49 3.11l-2.956 26.68a2.82 2.82 0 0 1-3.111 2.49" fill="url(#a)"/><path d="m45.364 13.754-1.166 10.521-2.591-13.773 1.267.14a2.817 2.817 0 0 1 2.49 3.112" fill="url(#b)"/><path d="M43.907 37.967 12.098 43.95a2.82 2.82 0 0 1-3.29-2.249L3.845 15.323a2.82 2.82 0 0 1 2.249-3.29l31.808-5.984a2.82 2.82 0 0 1 3.29 2.248l4.963 26.38a2.82 2.82 0 0 1-2.248 3.29" fill="url(#c)"/><path d="M41.871 11.907V38.35l2.035-.383a2.82 2.82 0 0 0 2.249-3.29z" fill="url(#d)"/><path d="m8.657 40.898.151.804a2.82 2.82 0 0 0 3.29 2.249l16.23-3.053z" fill="url(#e)"/><path d="M39.053 41.062H6.687a2.82 2.82 0 0 1-2.818-2.818V11.402a2.82 2.82 0 0 1 2.818-2.817h32.366a2.82 2.82 0 0 1 2.818 2.817v26.842a2.82 2.82 0 0 1-2.818 2.818" fill="url(#f)"/><path d="M36.415 38.414H9.325a2.36 2.36 0 0 1-2.358-2.358V13.59a2.36 2.36 0 0 1 2.358-2.358h27.09a2.36 2.36 0 0 1 2.358 2.358v22.466a2.36 2.36 0 0 1-2.358 2.358" fill="url(#g)"/><path d="M24.756 38.415H9.326a2.36 2.36 0 0 1-2.36-2.359v-3.682l3.916-4.76a3.23 3.23 0 0 1 4.99 0l2.437 2.964z" fill="url(#h)"/><path d="M38.773 30.134v5.922a2.36 2.36 0 0 1-2.359 2.358H11.862l6.447-7.836 7.92-9.627a3.23 3.23 0 0 1 4.99 0z" fill="url(#i)"/><path d="M15.206 20.272a3.344 3.344 0 1 0 0-6.69 3.344 3.344 0 0 0 0 6.69" fill="url(#j)"/><defs><linearGradient id="a" x1="14.632" y1="12.042" x2="38.548" y2="41.911" gradientUnits="userSpaceOnUse"><stop stop-color="#FFA936"/><stop offset=".411" stop-color="#FF8548"/><stop offset=".778" stop-color="#FF6C54"/><stop offset="1" stop-color="#FF6359"/></linearGradient><linearGradient id="b" x1="44.581" y1="17.018" x2="42.581" y2="17.46" gradientUnits="userSpaceOnUse"><stop stop-color="#F82814" stop-opacity="0"/><stop offset="1" stop-color="#C0272D"/></linearGradient><linearGradient id="c" x1="11.3" y1="15.639" x2="42.9" y2="37.229" gradientUnits="userSpaceOnUse"><stop stop-color="#CDEC7A"/><stop offset=".216" stop-color="#B0E995"/><stop offset=".561" stop-color="#87E4BB"/><stop offset=".835" stop-color="#6EE1D2"/><stop offset="1" stop-color="#65E0DB"/></linearGradient><linearGradient id="d" x1="44.681" y1="25.128" x2="41.267" y2="25.128" gradientUnits="userSpaceOnUse"><stop stop-color="#CDEC7A" stop-opacity="0"/><stop offset=".235" stop-color="#9AD57D" stop-opacity=".235"/><stop offset=".604" stop-color="#51B482" stop-opacity=".604"/><stop offset=".868" stop-color="#239F85" stop-opacity=".868"/><stop offset="1" stop-color="#119786"/></linearGradient><linearGradient id="e" x1="18.492" y1="42.621" x2="18.492" y2="40.599" gradientUnits="userSpaceOnUse"><stop stop-color="#CDEC7A" stop-opacity="0"/><stop offset=".235" stop-color="#9AD57D" stop-opacity=".235"/><stop offset=".604" stop-color="#51B482" stop-opacity=".604"/><stop offset=".868" stop-color="#239F85" stop-opacity=".868"/><stop offset="1" stop-color="#119786"/></linearGradient><linearGradient id="f" x1="11.135" y1="13.088" x2="38.191" y2="40.144" gradientUnits="userSpaceOnUse"><stop stop-color="#F8F6FB"/><stop offset="1" stop-color="#EFDCFB"/></linearGradient><linearGradient id="g" x1="13.173" y1="12.207" x2="39.56" y2="46.538" gradientUnits="userSpaceOnUse"><stop stop-color="#18CEFB"/><stop offset=".297" stop-color="#2BB9F9"/><stop offset=".735" stop-color="#42A0F7"/><stop offset="1" stop-color="#4A97F6"/></linearGradient><linearGradient id="h" x1="10.081" y1="30.116" x2="21.642" y2="45.156" gradientUnits="userSpaceOnUse"><stop stop-color="#CDEC7A"/><stop offset=".215" stop-color="#B0E995" stop-opacity=".784"/><stop offset=".56" stop-color="#87E4BB" stop-opacity=".439"/><stop offset=".833" stop-color="#6EE1D2" stop-opacity=".165"/><stop offset=".999" stop-color="#65E0DB" stop-opacity="0"/></linearGradient><linearGradient id="i" x1="20.328" y1="27.783" x2="34.271" y2="45.923" gradientUnits="userSpaceOnUse"><stop stop-color="#CDEC7A"/><stop offset=".216" stop-color="#B0E995"/><stop offset=".561" stop-color="#87E4BB"/><stop offset=".835" stop-color="#6EE1D2"/><stop offset="1" stop-color="#65E0DB"/></linearGradient><linearGradient id="j" x1="13.544" y1="14.765" x2="18.066" y2="20.648" gradientUnits="userSpaceOnUse"><stop stop-color="#FFD945"/><stop offset=".304" stop-color="#FFCD3E"/><stop offset=".856" stop-color="#FFAD2B"/><stop offset="1" stop-color="#FFA325"/></linearGradient></defs></svg>