<svg width="20" height="20" viewBox="0 0 20 20" fill="none" xmlns="http://www.w3.org/2000/svg"><path fill-rule="evenodd" clip-rule="evenodd" d="M7.023 2.5c.35 0 .634.279.634.623a.63.63 0 0 1-.634.622H5.665c-1.126.002-2.043.902-2.043 2.007v1.55a.63.63 0 0 1-.635.622.63.63 0 0 1-.634-.622v-1.55c0-1.79 1.486-3.25 3.311-3.251zM13 2.5h1.328c1.83 0 3.319 1.46 3.319 3.255v1.547a.63.63 0 0 1-.634.623.63.63 0 0 1-.635-.623V5.755c0-1.109-.92-2.011-2.05-2.011H13a.63.63 0 0 1-.634-.621c0-.344.284-.623.634-.623m-.698 3.119H7.698c-1.053.01-1.9.855-1.89 1.888v1.038a.23.23 0 0 0 .225.224h7.933a.233.233 0 0 0 .227-.224V7.507a1.9 1.9 0 0 0-.55-1.336 1.9 1.9 0 0 0-1.341-.552M1.468 10.034h17.064c.35 0 .634.279.634.623a.63.63 0 0 1-.634.621h-.885v2.966c0 1.797-1.489 3.256-3.319 3.256h-1.327a.63.63 0 0 1-.635-.623c0-.343.284-.621.635-.621h1.327c1.13 0 2.05-.902 2.05-2.012v-2.966h-2.185v.826c.008 1.034-.838 1.879-1.892 1.889H7.698c-1.053-.01-1.9-.855-1.89-1.889v-.826H3.62v2.97c0 1.105.918 2.005 2.045 2.007h1.357c.35 0 .634.28.634.622a.63.63 0 0 1-.635.623H5.665c-1.826-.003-3.313-1.461-3.313-3.252v-2.97h-.884a.63.63 0 0 1-.635-.621.63.63 0 0 1 .635-.623" fill="#7986AC"/></svg>