<svg width="20" height="20" viewBox="0 0 20 20" fill="none" xmlns="http://www.w3.org/2000/svg"><path d="M12.793 3.328a.45.45 0 0 0-.293.422c0 .188.117.356.293.422L15 5l.828 2.207a.452.452 0 0 0 .844 0L17.5 5l2.207-.828A.45.45 0 0 0 20 3.75a.45.45 0 0 0-.293-.422L17.5 2.5 16.672.293A.45.45 0 0 0 16.25 0a.45.45 0 0 0-.422.293L15 2.5zm-4.781-.464a.623.623 0 0 0-1.133 0L4.816 7.317.363 9.375a.62.62 0 0 0-.363.57c0 .247.14.465.363.567l4.457 2.059 2.055 4.453a.623.623 0 0 0 1.133 0l2.058-4.457 4.457-2.059a.623.623 0 0 0 0-1.133L10.07 7.321zM15 15l-2.207.828a.452.452 0 0 0 0 .844L15 17.5l.828 2.207a.452.452 0 0 0 .844 0L17.5 17.5l2.207-.828a.452.452 0 0 0 0-.844L17.5 15l-.828-2.207a.45.45 0 0 0-.422-.293.45.45 0 0 0-.422.293z" fill="#7986AC"/></svg>